<?xml version="1.0" encoding="utf-8"?>
<!-- Generator: Adobe Illustrator 27.8.1, SVG Export Plug-In . SVG Version: 6.00 Build 0)  -->
<svg version="1.1" xmlns="http://www.w3.org/2000/svg" xmlns:xlink="http://www.w3.org/1999/xlink" x="0px" y="0px"
	 viewBox="0 0 39.3 14.8" style="enable-background:new 0 0 39.3 14.8;" xml:space="preserve">
<style type="text/css">
	.st0{display:none;}
	.st1{display:inline;fill:#1D1D1B;}
	.st2{fill:#FFFFFF;}
</style>
<g id="Calque_2" class="st0">
	<rect x="-15.4" y="-7.7" class="st1" width="72.6" height="32.7"/>
</g>
<g id="Calque_1">
	<path class="st2" d="M19.6,0.1c8.6,0,14.7,2.2,14.7,2.2s-6-1.4-14.7-1.4S4.8,2.3,4.8,2.3S10.7,0.1,19.6,0.1z"/>
	<g>
		<path class="st2" d="M1.7,6.9h2.2L3.7,7.7H1.5l-0.2,1h2.4L3.5,9.5H0.3l1-4.4h3.2L4.3,5.9H1.9L1.7,6.9z"/>
		<path class="st2" d="M8.2,7.3C8,7.5,7.6,7.7,7.2,7.8l0.9,1.7h-1L6.3,7.9H5.5L5.1,9.5H4.3l1-4.4h1.9c0.4,0,0.8,0.1,1,0.3
			c0.2,0.2,0.4,0.5,0.4,0.9C8.5,6.7,8.4,7,8.2,7.3z M6.7,7.1C7,7.1,7.2,7,7.4,6.9c0.2-0.1,0.3-0.3,0.3-0.5c0-0.2,0-0.3-0.1-0.3
			C7.4,5.9,7.3,5.9,7.1,5.9H5.9L5.7,7.1H6.7z"/>
		<path class="st2" d="M13.4,6.9c0,0.2,0,0.3,0,0.4C13.2,8,13,8.6,12.5,9s-1,0.6-1.6,0.6c-0.6,0-1.1-0.2-1.4-0.5S8.9,8.2,8.9,7.6
			c0-0.7,0.3-1.3,0.8-1.8C10.2,5.3,10.8,5,11.6,5c0.4,0,0.8,0.1,1.2,0.3c0.3,0.2,0.6,0.6,0.6,1l-0.9,0.2c-0.1-0.4-0.5-0.7-1-0.7
			c-0.5,0-0.9,0.2-1.2,0.5S9.8,7,9.8,7.5c0,0.4,0.1,0.7,0.3,0.9c0.2,0.2,0.5,0.3,0.9,0.3c0.3,0,0.6-0.1,0.9-0.3
			c0.2-0.2,0.4-0.4,0.5-0.7H11l0.2-0.8H13.4z"/>
		<path class="st2" d="M15.2,9.5h-0.9l0.3-1.4l-1-3h0.9l0.7,2.1l1.6-2.1h1l-2.4,3L15.2,9.5z"/>
		<path class="st2" d="M20.8,5.3c0.3,0.2,0.4,0.5,0.5,0.9l-0.9,0.2c0-0.2-0.1-0.4-0.2-0.5c-0.1-0.1-0.3-0.2-0.6-0.2
			c-0.2,0-0.4,0.1-0.5,0.2c-0.1,0.1-0.2,0.3-0.2,0.4c0,0.1,0,0.2,0.1,0.2c0.1,0.1,0.2,0.1,0.3,0.2l0.6,0.2c0.7,0.2,1,0.6,1,1.1
			c0,0.4-0.2,0.8-0.5,1.1C20,9.4,19.6,9.6,19,9.6c-0.5,0-0.9-0.1-1.2-0.3c-0.3-0.2-0.5-0.5-0.5-1l0.9-0.2c0.1,0.5,0.3,0.7,0.9,0.7
			c0.3,0,0.5-0.1,0.6-0.2c0.1-0.1,0.2-0.3,0.2-0.4c0-0.1,0-0.2-0.1-0.3c-0.1-0.1-0.2-0.1-0.4-0.2l-0.6-0.2c-0.1,0-0.2-0.1-0.3-0.1
			s-0.2-0.1-0.3-0.2c-0.1-0.1-0.2-0.2-0.2-0.3c-0.1-0.1-0.1-0.3-0.1-0.4c0-0.4,0.2-0.8,0.5-1.1C18.7,5.1,19.1,5,19.7,5
			C20.1,5,20.5,5.1,20.8,5.3z"/>
		<path class="st2" d="M23.9,5.1c0.4,0,0.8,0.1,1,0.4s0.4,0.6,0.4,0.9c0,0.5-0.2,0.9-0.5,1.2C24.5,7.9,24,8,23.4,8h-1.2l-0.3,1.4
			h-0.9l1-4.4H23.9z M23.5,7.2c0.3,0,0.5-0.1,0.7-0.2c0.2-0.1,0.3-0.3,0.3-0.6c0-0.4-0.2-0.5-0.6-0.5h-1.1l-0.3,1.3H23.5z"/>
		<path class="st2" d="M29.7,5.7c0.4,0.4,0.5,1,0.4,1.6C30,8,29.8,8.5,29.3,8.9c-0.5,0.4-1,0.6-1.7,0.6c-0.7,0-1.2-0.2-1.5-0.7
			c-0.4-0.4-0.5-1-0.4-1.6c0.1-0.6,0.4-1.2,0.9-1.6s1-0.7,1.6-0.7C28.8,5,29.3,5.2,29.7,5.7z M28.7,8.3c0.3-0.3,0.5-0.6,0.5-1
			c0.1-0.4,0-0.8-0.2-1c-0.2-0.3-0.5-0.4-0.9-0.4c-0.4,0-0.8,0.1-1.1,0.4c-0.3,0.3-0.5,0.6-0.5,1c-0.1,0.4,0,0.8,0.3,1
			c0.2,0.3,0.5,0.4,0.9,0.4C28.1,8.7,28.4,8.6,28.7,8.3z"/>
		<path class="st2" d="M34.3,7.3c-0.2,0.3-0.6,0.5-1,0.5l0.9,1.7h-1l-0.8-1.6h-0.8l-0.4,1.6h-0.9l1-4.4h1.9c0.4,0,0.8,0.1,1,0.3
			c0.2,0.2,0.4,0.5,0.4,0.9C34.6,6.7,34.5,7,34.3,7.3z M32.8,7.1c0.3,0,0.5-0.1,0.7-0.2c0.2-0.1,0.3-0.3,0.3-0.5
			c0-0.2,0-0.3-0.1-0.3c-0.1-0.1-0.2-0.1-0.4-0.1H32l-0.3,1.2H32.8z"/>
		<path class="st2" d="M37.3,5.9l-0.8,3.6h-0.9l0.8-3.6H35l0.2-0.8h3.7l-0.2,0.8H37.3z"/>
	</g>
	<g>
		<path class="st2" d="M11.9,12.6c0.2,0,0.5,0.3,0.5,0.6c0,0.4-0.3,0.7-0.8,0.7h-1.2v-2.7h1.2c0.5,0,0.8,0.3,0.8,0.7
			C12.3,12.4,12.1,12.6,11.9,12.6L11.9,12.6z M10.8,12.5h0.8c0.2,0,0.4-0.2,0.4-0.4c0-0.2-0.2-0.4-0.4-0.4h-0.8V12.5z M11.6,13.6
			c0.3,0,0.4-0.2,0.4-0.4c0-0.2-0.2-0.4-0.4-0.4h-0.8v0.8H11.6z"/>
		<path class="st2" d="M14.1,14h-0.4v-0.9l-1-1.8h0.4l0.8,1.3l0.8-1.3h0.5l-1,1.8V14z"/>
		<path class="st2" d="M18.8,14h-0.3l-1.5-1.9V14h-0.4v-2.7h0.3l1.5,2v-2h0.4V14z"/>
		<path class="st2" d="M21.5,12.8c0,0.7-0.4,1.2-1.1,1.2c-0.7,0-1.1-0.5-1.1-1.2v-1.5h0.4v1.5c0,0.5,0.3,0.8,0.7,0.8
			c0.4,0,0.7-0.3,0.7-0.8v-1.5h0.4V12.8z"/>
		<path class="st2" d="M23.2,11.7V14h-0.4v-2.3h-0.9v-0.4h2.2v0.4H23.2z"/>
		<path class="st2" d="M26.4,14h-1.9v-2.7h1.9v0.4h-1.5v0.8h1.4v0.4h-1.4v0.8h1.5V14z"/>
		<path class="st2" d="M28.6,14l-0.9-1.1h-0.4V14H27v-2.7h1.2c0.5,0,0.9,0.3,0.9,0.8c0,0.5-0.3,0.8-0.8,0.8l0.9,1.1H28.6z
			 M28.1,12.5c0.3,0,0.5-0.2,0.5-0.4c0-0.3-0.2-0.4-0.5-0.4h-0.8v0.8H28.1z"/>
		<path class="st2" d="M32,12.5c0,0.1,0,0.1,0,0.2c0,0.8-0.5,1.4-1.3,1.4c-0.7,0-1.3-0.6-1.3-1.4c0-0.8,0.6-1.4,1.3-1.4
			c0.5,0,1,0.3,1.2,0.8l-0.4,0.1c-0.2-0.4-0.5-0.5-0.8-0.5c-0.5,0-0.9,0.4-0.9,1c0,0.6,0.4,1,0.9,1c0.5,0,0.8-0.3,0.9-0.8h-1v-0.4
			H32z"/>
		<path class="st2" d="M32.5,14v-2.7h0.4V14H32.5z"/>
		<path class="st2" d="M35.4,14l-0.2-0.6H34L33.7,14h-0.4l1.1-2.7h0.4l1.1,2.7H35.4z M34.6,11.8L34.1,13H35L34.6,11.8z"/>
	</g>
</g>
</svg>
