<?xml version="1.0" encoding="utf-8"?>
<!-- Generator: Adobe Illustrator 27.8.1, SVG Export Plug-In . SVG Version: 6.00 Build 0)  -->
<svg version="1.1" id="Calque_1" xmlns="http://www.w3.org/2000/svg" xmlns:xlink="http://www.w3.org/1999/xlink" x="0px" y="0px"
	 viewBox="0 0 627.7 448.4" style="enable-background:new 0 0 627.7 448.4;" xml:space="preserve">
<style type="text/css">
	.st0{fill-rule:evenodd;clip-rule:evenodd;fill:#DEEBF7;}
	.st1{fill-rule:evenodd;clip-rule:evenodd;fill:#BDD7EE;}
	.st2{fill-rule:evenodd;clip-rule:evenodd;fill:#9DC3E6;}
	.st3{fill-rule:evenodd;clip-rule:evenodd;fill:#2E75B6;}
	.st4{fill-rule:evenodd;clip-rule:evenodd;fill:#1F4E79;}
	.st5{fill-rule:evenodd;clip-rule:evenodd;fill:#002060;}
	.st6{fill:none;stroke:#D9D9D9;stroke-width:0.9956;stroke-linejoin:round;stroke-miterlimit:10;}
	.st7{clip-path:url(#SVGID_00000168112462807663563030000017585296797443095680_);}
	.st8{fill:#595959;}
	.st9{clip-path:url(#SVGID_00000094596205932650014360000005153063344535643573_);}
	.st10{clip-path:url(#SVGID_00000157996187423257416210000005336838410944743826_);}
	.st11{clip-path:url(#SVGID_00000041983229087359248330000003478870239820268211_);}
	.st12{clip-path:url(#SVGID_00000145775006148281619600000000667605259383993259_);}
	.st13{clip-path:url(#SVGID_00000000939116009369932130000003390525587226485950_);}
	.st14{clip-path:url(#SVGID_00000129888881269432711720000006063958301898947511_);}
	.st15{clip-path:url(#SVGID_00000126302333576459514120000008247503049753905286_);}
	.st16{clip-path:url(#SVGID_00000165217197135213983320000013958118359535472317_);}
	.st17{clip-path:url(#SVGID_00000158001009126294299310000009318882554746468273_);}
	.st18{clip-path:url(#SVGID_00000152955758452618336010000010147476273947712641_);}
	.st19{clip-path:url(#SVGID_00000018238943053131481850000013438888414883261572_);}
	.st20{clip-path:url(#SVGID_00000023979942973877547700000008193427687408448943_);}
</style>
<rect x="89.3" y="170" class="st0" width="52.8" height="240.9"/>
<rect x="180.4" y="178.6" class="st1" width="52.8" height="232.3"/>
<rect x="271.6" y="159.3" class="st2" width="52.6" height="251.6"/>
<rect x="362.7" y="107.1" class="st3" width="52.6" height="303.8"/>
<rect x="453.8" y="107.4" class="st4" width="52.8" height="303.5"/>
<rect x="544.9" y="73.2" class="st5" width="52.8" height="337.7"/>
<line class="st6" x1="70" y1="410.9" x2="617" y2="410.9"/>
<g>
	<defs>
		<rect id="SVGID_1_" x="-4" y="36.5" width="636" height="411.9"/>
	</defs>
	<clipPath id="SVGID_00000083051908922477690750000006446108382429868176_">
		<use xlink:href="#SVGID_1_"  style="overflow:visible;"/>
	</clipPath>
	<g style="clip-path:url(#SVGID_00000083051908922477690750000006446108382429868176_);">
		<path class="st8" d="M51.1,404.4c1.2,0,2,0.4,2.7,1.2c0.8,1,1.2,2.6,1.2,4.8c0,2.2-0.4,3.9-1.2,4.8c-0.6,0.8-1.5,1.2-2.7,1.2
			c-1.2,0-2.1-0.4-2.8-1.3c-0.7-0.9-1.1-2.5-1.1-4.8c0-2.2,0.4-3.8,1.2-4.8C49.1,404.8,50,404.4,51.1,404.4z M51.1,406.3
			c-0.3,0-0.5,0.1-0.7,0.3c-0.2,0.2-0.4,0.5-0.5,0.9c-0.2,0.6-0.2,1.6-0.2,3s0.1,2.4,0.2,2.9c0.1,0.5,0.3,0.9,0.5,1s0.5,0.3,0.7,0.3
			s0.5-0.1,0.7-0.3c0.2-0.2,0.4-0.5,0.5-0.9c0.2-0.6,0.2-1.6,0.2-3s-0.1-2.4-0.2-2.9c-0.1-0.5-0.3-0.9-0.5-1S51.4,406.3,51.1,406.3z
			"/>
	</g>
</g>
<g>
	<defs>
		<rect id="SVGID_00000114075717653839065830000010890979461183740843_" x="-4" y="36.5" width="636" height="411.9"/>
	</defs>
	<clipPath id="SVGID_00000173147483619622902280000006994681063044586158_">
		<use xlink:href="#SVGID_00000114075717653839065830000010890979461183740843_"  style="overflow:visible;"/>
	</clipPath>
	<g style="clip-path:url(#SVGID_00000173147483619622902280000006994681063044586158_);">
		<path class="st8" d="M15,353.6l2.3-0.2c0.1,0.5,0.3,0.9,0.6,1.2c0.3,0.3,0.7,0.5,1.1,0.5c0.5,0,0.9-0.2,1.2-0.6
			c0.3-0.4,0.5-1,0.5-1.7c0-0.7-0.2-1.3-0.5-1.6c-0.3-0.4-0.8-0.5-1.3-0.5c-0.7,0-1.2,0.3-1.8,0.9l-1.8-0.3l1.2-6.2h6v2.1h-4.3
			l-0.4,2c0.5-0.3,1-0.4,1.6-0.4c1,0,1.9,0.4,2.6,1.1s1.1,1.7,1.1,2.9c0,1-0.3,1.8-0.9,2.6c-0.8,1-1.8,1.6-3.2,1.6
			c-1.1,0-2-0.3-2.7-0.9S15.1,354.6,15,353.6z"/>
		<path class="st8" d="M32.6,344.7c1.2,0,2,0.4,2.7,1.2c0.8,1,1.2,2.6,1.2,4.8c0,2.2-0.4,3.9-1.2,4.8c-0.6,0.8-1.5,1.2-2.7,1.2
			c-1.2,0-2.1-0.4-2.8-1.3c-0.7-0.9-1.1-2.5-1.1-4.8c0-2.2,0.4-3.8,1.2-4.8C30.5,345.1,31.4,344.7,32.6,344.7z M32.6,346.6
			c-0.3,0-0.5,0.1-0.7,0.3c-0.2,0.2-0.4,0.5-0.5,0.9c-0.2,0.6-0.2,1.6-0.2,3s0.1,2.4,0.2,2.9c0.1,0.5,0.3,0.9,0.5,1
			c0.2,0.2,0.5,0.3,0.7,0.3s0.5-0.1,0.7-0.3c0.2-0.2,0.4-0.5,0.5-0.9c0.2-0.6,0.2-1.6,0.2-3s-0.1-2.4-0.2-2.9
			c-0.1-0.5-0.3-0.9-0.5-1S32.9,346.6,32.6,346.6z"/>
		<path class="st8" d="M41.8,344.7c1.2,0,2,0.4,2.7,1.2c0.8,1,1.2,2.6,1.2,4.8c0,2.2-0.4,3.9-1.2,4.8c-0.6,0.8-1.5,1.2-2.7,1.2
			c-1.2,0-2.1-0.4-2.8-1.3c-0.7-0.9-1.1-2.5-1.1-4.8c0-2.2,0.4-3.8,1.2-4.8C39.8,345.1,40.7,344.7,41.8,344.7z M41.8,346.6
			c-0.3,0-0.5,0.1-0.7,0.3c-0.2,0.2-0.4,0.5-0.5,0.9c-0.2,0.6-0.2,1.6-0.2,3s0.1,2.4,0.2,2.9c0.1,0.5,0.3,0.9,0.5,1s0.5,0.3,0.7,0.3
			s0.5-0.1,0.7-0.3c0.2-0.2,0.4-0.5,0.5-0.9c0.2-0.6,0.2-1.6,0.2-3s-0.1-2.4-0.2-2.9c-0.1-0.5-0.3-0.9-0.5-1S42.1,346.6,41.8,346.6z
			"/>
		<path class="st8" d="M51.1,344.7c1.2,0,2,0.4,2.7,1.2c0.8,1,1.2,2.6,1.2,4.8c0,2.2-0.4,3.9-1.2,4.8c-0.6,0.8-1.5,1.2-2.7,1.2
			c-1.2,0-2.1-0.4-2.8-1.3c-0.7-0.9-1.1-2.5-1.1-4.8c0-2.2,0.4-3.8,1.2-4.8C49.1,345.1,50,344.7,51.1,344.7z M51.1,346.6
			c-0.3,0-0.5,0.1-0.7,0.3c-0.2,0.2-0.4,0.5-0.5,0.9c-0.2,0.6-0.2,1.6-0.2,3s0.1,2.4,0.2,2.9c0.1,0.5,0.3,0.9,0.5,1s0.5,0.3,0.7,0.3
			s0.5-0.1,0.7-0.3c0.2-0.2,0.4-0.5,0.5-0.9c0.2-0.6,0.2-1.6,0.2-3s-0.1-2.4-0.2-2.9c-0.1-0.5-0.3-0.9-0.5-1S51.4,346.6,51.1,346.6z
			"/>
	</g>
</g>
<g>
	<defs>
		<rect id="SVGID_00000181050425466058583430000008082265456137060538_" x="-4" y="36.5" width="636" height="411.9"/>
	</defs>
	<clipPath id="SVGID_00000041998443031788370900000007618507471391704968_">
		<use xlink:href="#SVGID_00000181050425466058583430000008082265456137060538_"  style="overflow:visible;"/>
	</clipPath>
	<g style="clip-path:url(#SVGID_00000041998443031788370900000007618507471391704968_);">
		<path class="st8" d="M11.6,297H9.3v-8.6c-0.8,0.8-1.8,1.4-2.9,1.7v-2.1c0.6-0.2,1.2-0.6,1.9-1.1c0.7-0.5,1.2-1.2,1.4-1.9h1.8V297z
			"/>
		<path class="st8" d="M18.9,285.1c1.2,0,2,0.4,2.7,1.2c0.8,1,1.2,2.6,1.2,4.8c0,2.2-0.4,3.9-1.2,4.8c-0.6,0.8-1.5,1.2-2.7,1.2
			c-1.2,0-2.1-0.4-2.8-1.3c-0.7-0.9-1.1-2.5-1.1-4.8c0-2.2,0.4-3.8,1.2-4.8C16.8,285.5,17.7,285.1,18.9,285.1z M18.9,287
			c-0.3,0-0.5,0.1-0.7,0.3c-0.2,0.2-0.4,0.5-0.5,0.9c-0.2,0.6-0.2,1.6-0.2,3s0.1,2.4,0.2,2.9c0.1,0.5,0.3,0.9,0.5,1s0.5,0.3,0.7,0.3
			s0.5-0.1,0.7-0.3c0.2-0.2,0.4-0.5,0.5-0.9c0.2-0.6,0.2-1.6,0.2-3s-0.1-2.4-0.2-2.9c-0.1-0.5-0.3-0.9-0.5-1S19.1,287,18.9,287z"/>
		<path class="st8" d="M32.6,285.1c1.2,0,2,0.4,2.7,1.2c0.8,1,1.2,2.6,1.2,4.8c0,2.2-0.4,3.9-1.2,4.8c-0.6,0.8-1.5,1.2-2.7,1.2
			c-1.2,0-2.1-0.4-2.8-1.3c-0.7-0.9-1.1-2.5-1.1-4.8c0-2.2,0.4-3.8,1.2-4.8C30.6,285.5,31.5,285.1,32.6,285.1z M32.6,287
			c-0.3,0-0.5,0.1-0.7,0.3c-0.2,0.2-0.4,0.5-0.5,0.9c-0.2,0.6-0.2,1.6-0.2,3s0.1,2.4,0.2,2.9c0.1,0.5,0.3,0.9,0.5,1
			c0.2,0.2,0.5,0.3,0.7,0.3s0.5-0.1,0.7-0.3c0.2-0.2,0.4-0.5,0.5-0.9c0.2-0.6,0.2-1.6,0.2-3s-0.1-2.4-0.2-2.9
			c-0.1-0.5-0.3-0.9-0.5-1S32.9,287,32.6,287z"/>
		<path class="st8" d="M41.9,285.1c1.2,0,2,0.4,2.7,1.2c0.8,1,1.2,2.6,1.2,4.8c0,2.2-0.4,3.9-1.2,4.8c-0.6,0.8-1.5,1.2-2.7,1.2
			c-1.2,0-2.1-0.4-2.8-1.3c-0.7-0.9-1.1-2.5-1.1-4.8c0-2.2,0.4-3.8,1.2-4.8C39.9,285.5,40.7,285.1,41.9,285.1z M41.9,287
			c-0.3,0-0.5,0.1-0.7,0.3c-0.2,0.2-0.4,0.5-0.5,0.9c-0.2,0.6-0.2,1.6-0.2,3s0.1,2.4,0.2,2.9c0.1,0.5,0.3,0.9,0.5,1s0.5,0.3,0.7,0.3
			s0.5-0.1,0.7-0.3c0.2-0.2,0.4-0.5,0.5-0.9c0.2-0.6,0.2-1.6,0.2-3s-0.1-2.4-0.2-2.9c-0.1-0.5-0.3-0.9-0.5-1S42.2,287,41.9,287z"/>
		<path class="st8" d="M51,285.1c1.2,0,2,0.4,2.7,1.2c0.8,1,1.2,2.6,1.2,4.8c0,2.2-0.4,3.9-1.2,4.8c-0.6,0.8-1.5,1.2-2.7,1.2
			c-1.2,0-2.1-0.4-2.8-1.3c-0.7-0.9-1.1-2.5-1.1-4.8c0-2.2,0.4-3.8,1.2-4.8C49,285.5,49.9,285.1,51,285.1z M51,287
			c-0.3,0-0.5,0.1-0.7,0.3c-0.2,0.2-0.4,0.5-0.5,0.9c-0.2,0.6-0.2,1.6-0.2,3s0.1,2.4,0.2,2.9c0.1,0.5,0.3,0.9,0.5,1s0.5,0.3,0.7,0.3
			s0.5-0.1,0.7-0.3c0.2-0.2,0.4-0.5,0.5-0.9c0.2-0.6,0.2-1.6,0.2-3s-0.1-2.4-0.2-2.9c-0.1-0.5-0.3-0.9-0.5-1S51.3,287,51,287z"/>
	</g>
</g>
<g>
	<defs>
		<rect id="SVGID_00000128451085001772328570000012638118384822500790_" x="-4" y="36.5" width="636" height="411.9"/>
	</defs>
	<clipPath id="SVGID_00000149343782499916933550000008451548004519900590_">
		<use xlink:href="#SVGID_00000128451085001772328570000012638118384822500790_"  style="overflow:visible;"/>
	</clipPath>
	<g style="clip-path:url(#SVGID_00000149343782499916933550000008451548004519900590_);">
		<path class="st8" d="M11.6,237.3H9.3v-8.6c-0.8,0.8-1.8,1.4-2.9,1.7v-2.1c0.6-0.2,1.2-0.6,1.9-1.1c0.7-0.5,1.2-1.2,1.4-1.9h1.8
			V237.3z"/>
		<path class="st8" d="M15,234.2l2.3-0.2c0.1,0.5,0.3,0.9,0.6,1.2c0.3,0.3,0.7,0.5,1.1,0.5c0.5,0,0.9-0.2,1.2-0.6
			c0.3-0.4,0.5-1,0.5-1.7c0-0.7-0.2-1.3-0.5-1.6c-0.3-0.4-0.8-0.5-1.3-0.5c-0.7,0-1.2,0.3-1.8,0.9l-1.8-0.3l1.2-6.2h6v2.1h-4.3
			l-0.4,2c0.5-0.3,1-0.4,1.6-0.4c1,0,1.9,0.4,2.6,1.1s1.1,1.7,1.1,2.9c0,1-0.3,1.8-0.9,2.6c-0.8,1-1.8,1.6-3.2,1.6
			c-1.1,0-2-0.3-2.7-0.9S15.2,235.2,15,234.2z"/>
		<path class="st8" d="M32.6,225.4c1.2,0,2,0.4,2.7,1.2c0.8,1,1.2,2.6,1.2,4.8c0,2.2-0.4,3.9-1.2,4.8c-0.6,0.8-1.5,1.2-2.7,1.2
			c-1.2,0-2.1-0.4-2.8-1.3c-0.7-0.9-1.1-2.5-1.1-4.8c0-2.2,0.4-3.8,1.2-4.8C30.6,225.8,31.5,225.4,32.6,225.4z M32.6,227.3
			c-0.3,0-0.5,0.1-0.7,0.3c-0.2,0.2-0.4,0.5-0.5,0.9c-0.2,0.6-0.2,1.6-0.2,3s0.1,2.4,0.2,2.9c0.1,0.5,0.3,0.9,0.5,1
			c0.2,0.2,0.5,0.3,0.7,0.3s0.5-0.1,0.7-0.3c0.2-0.2,0.4-0.5,0.5-0.9c0.2-0.6,0.2-1.6,0.2-3s-0.1-2.4-0.2-2.9
			c-0.1-0.5-0.3-0.9-0.5-1S32.9,227.3,32.6,227.3z"/>
		<path class="st8" d="M41.9,225.4c1.2,0,2,0.4,2.7,1.2c0.8,1,1.2,2.6,1.2,4.8c0,2.2-0.4,3.9-1.2,4.8c-0.6,0.8-1.5,1.2-2.7,1.2
			c-1.2,0-2.1-0.4-2.8-1.3c-0.7-0.9-1.1-2.5-1.1-4.8c0-2.2,0.4-3.8,1.2-4.8C39.9,225.8,40.7,225.4,41.9,225.4z M41.9,227.3
			c-0.3,0-0.5,0.1-0.7,0.3c-0.2,0.2-0.4,0.5-0.5,0.9c-0.2,0.6-0.2,1.6-0.2,3s0.1,2.4,0.2,2.9c0.1,0.5,0.3,0.9,0.5,1s0.5,0.3,0.7,0.3
			s0.5-0.1,0.7-0.3c0.2-0.2,0.4-0.5,0.5-0.9c0.2-0.6,0.2-1.6,0.2-3s-0.1-2.4-0.2-2.9c-0.1-0.5-0.3-0.9-0.5-1S42.2,227.3,41.9,227.3z
			"/>
		<path class="st8" d="M51,225.4c1.2,0,2,0.4,2.7,1.2c0.8,1,1.2,2.6,1.2,4.8c0,2.2-0.4,3.9-1.2,4.8c-0.6,0.8-1.5,1.2-2.7,1.2
			c-1.2,0-2.1-0.4-2.8-1.3c-0.7-0.9-1.1-2.5-1.1-4.8c0-2.2,0.4-3.8,1.2-4.8C49,225.8,49.9,225.4,51,225.4z M51,227.3
			c-0.3,0-0.5,0.1-0.7,0.3c-0.2,0.2-0.4,0.5-0.5,0.9c-0.2,0.6-0.2,1.6-0.2,3s0.1,2.4,0.2,2.9c0.1,0.5,0.3,0.9,0.5,1s0.5,0.3,0.7,0.3
			s0.5-0.1,0.7-0.3c0.2-0.2,0.4-0.5,0.5-0.9c0.2-0.6,0.2-1.6,0.2-3s-0.1-2.4-0.2-2.9c-0.1-0.5-0.3-0.9-0.5-1S51.3,227.3,51,227.3z"
			/>
	</g>
</g>
<g>
	<defs>
		<rect id="SVGID_00000176010866391066301650000002318246552237225894_" x="-4" y="36.5" width="636" height="411.9"/>
	</defs>
	<clipPath id="SVGID_00000081619369885818379600000008954673657198945706_">
		<use xlink:href="#SVGID_00000176010866391066301650000002318246552237225894_"  style="overflow:visible;"/>
	</clipPath>
	<g style="clip-path:url(#SVGID_00000081619369885818379600000008954673657198945706_);">
		<path class="st8" d="M13.4,175.5v2.1h-8c0.1-0.8,0.3-1.6,0.8-2.3c0.4-0.7,1.3-1.7,2.6-2.8c1-1,1.7-1.6,1.9-1.9
			c0.3-0.5,0.5-0.9,0.5-1.4c0-0.5-0.1-0.9-0.4-1.2c-0.3-0.3-0.6-0.4-1.1-0.4c-0.5,0-0.9,0.1-1.1,0.4c-0.3,0.3-0.4,0.8-0.5,1.4
			l-2.3-0.2c0.1-1.3,0.6-2.2,1.3-2.7s1.6-0.8,2.7-0.8c1.2,0,2.1,0.3,2.8,0.9c0.7,0.6,1,1.4,1,2.4c0,0.5-0.1,1-0.3,1.5
			s-0.5,1-0.9,1.5c-0.3,0.4-0.8,0.9-1.5,1.5c-0.7,0.7-1.2,1.1-1.4,1.3c-0.2,0.2-0.3,0.4-0.5,0.6H13.4z"/>
		<path class="st8" d="M18.9,165.7c1.2,0,2,0.4,2.7,1.2c0.8,1,1.2,2.6,1.2,4.8c0,2.2-0.4,3.9-1.2,4.8c-0.6,0.8-1.5,1.2-2.7,1.2
			c-1.2,0-2.1-0.4-2.8-1.3c-0.7-0.9-1.1-2.5-1.1-4.8c0-2.2,0.4-3.8,1.2-4.8C16.8,166.1,17.7,165.7,18.9,165.7z M18.9,167.6
			c-0.3,0-0.5,0.1-0.7,0.3c-0.2,0.2-0.4,0.5-0.5,0.9c-0.2,0.6-0.2,1.6-0.2,3s0.1,2.4,0.2,2.9c0.1,0.5,0.3,0.9,0.5,1
			c0.2,0.2,0.5,0.3,0.7,0.3s0.5-0.1,0.7-0.3c0.2-0.2,0.4-0.5,0.5-0.9c0.2-0.6,0.2-1.6,0.2-3s-0.1-2.4-0.2-2.9
			c-0.1-0.5-0.3-0.9-0.5-1C19.4,167.7,19.1,167.6,18.9,167.6z"/>
		<path class="st8" d="M32.6,165.7c1.2,0,2,0.4,2.7,1.2c0.8,1,1.2,2.6,1.2,4.8c0,2.2-0.4,3.9-1.2,4.8c-0.6,0.8-1.5,1.2-2.7,1.2
			c-1.2,0-2.1-0.4-2.8-1.3c-0.7-0.9-1.1-2.5-1.1-4.8c0-2.2,0.4-3.8,1.2-4.8C30.6,166.1,31.5,165.7,32.6,165.7z M32.6,167.6
			c-0.3,0-0.5,0.1-0.7,0.3c-0.2,0.2-0.4,0.5-0.5,0.9c-0.2,0.6-0.2,1.6-0.2,3s0.1,2.4,0.2,2.9c0.1,0.5,0.3,0.9,0.5,1
			c0.2,0.2,0.5,0.3,0.7,0.3s0.5-0.1,0.7-0.3c0.2-0.2,0.4-0.5,0.5-0.9c0.2-0.6,0.2-1.6,0.2-3s-0.1-2.4-0.2-2.9
			c-0.1-0.5-0.3-0.9-0.5-1C33.1,167.7,32.9,167.6,32.6,167.6z"/>
		<path class="st8" d="M41.9,165.7c1.2,0,2,0.4,2.7,1.2c0.8,1,1.2,2.6,1.2,4.8c0,2.2-0.4,3.9-1.2,4.8c-0.6,0.8-1.5,1.2-2.7,1.2
			c-1.2,0-2.1-0.4-2.8-1.3c-0.7-0.9-1.1-2.5-1.1-4.8c0-2.2,0.4-3.8,1.2-4.8C39.9,166.1,40.7,165.7,41.9,165.7z M41.9,167.6
			c-0.3,0-0.5,0.1-0.7,0.3c-0.2,0.2-0.4,0.5-0.5,0.9c-0.2,0.6-0.2,1.6-0.2,3s0.1,2.4,0.2,2.9c0.1,0.5,0.3,0.9,0.5,1
			c0.2,0.2,0.5,0.3,0.7,0.3s0.5-0.1,0.7-0.3c0.2-0.2,0.4-0.5,0.5-0.9c0.2-0.6,0.2-1.6,0.2-3s-0.1-2.4-0.2-2.9
			c-0.1-0.5-0.3-0.9-0.5-1C42.4,167.7,42.2,167.6,41.9,167.6z"/>
		<path class="st8" d="M51,165.7c1.2,0,2,0.4,2.7,1.2c0.8,1,1.2,2.6,1.2,4.8c0,2.2-0.4,3.9-1.2,4.8c-0.6,0.8-1.5,1.2-2.7,1.2
			c-1.2,0-2.1-0.4-2.8-1.3c-0.7-0.9-1.1-2.5-1.1-4.8c0-2.2,0.4-3.8,1.2-4.8C49,166.1,49.9,165.7,51,165.7z M51,167.6
			c-0.3,0-0.5,0.1-0.7,0.3c-0.2,0.2-0.4,0.5-0.5,0.9c-0.2,0.6-0.2,1.6-0.2,3s0.1,2.4,0.2,2.9c0.1,0.5,0.3,0.9,0.5,1
			c0.2,0.2,0.5,0.3,0.7,0.3s0.5-0.1,0.7-0.3c0.2-0.2,0.4-0.5,0.5-0.9c0.2-0.6,0.2-1.6,0.2-3s-0.1-2.4-0.2-2.9
			c-0.1-0.5-0.3-0.9-0.5-1C51.5,167.7,51.3,167.6,51,167.6z"/>
	</g>
</g>
<g>
	<defs>
		<rect id="SVGID_00000173143189036141210010000012208511951133192631_" x="-4" y="36.5" width="636" height="411.9"/>
	</defs>
	<clipPath id="SVGID_00000135690173056125400700000001761088870990183329_">
		<use xlink:href="#SVGID_00000173143189036141210010000012208511951133192631_"  style="overflow:visible;"/>
	</clipPath>
	<g style="clip-path:url(#SVGID_00000135690173056125400700000001761088870990183329_);">
		<path class="st8" d="M13.4,115.8v2.1h-8c0.1-0.8,0.3-1.6,0.8-2.3c0.4-0.7,1.3-1.7,2.6-2.8c1-1,1.7-1.6,1.9-1.9
			c0.3-0.5,0.5-0.9,0.5-1.4c0-0.5-0.1-0.9-0.4-1.2c-0.3-0.3-0.6-0.4-1.1-0.4c-0.5,0-0.9,0.1-1.1,0.4c-0.3,0.3-0.4,0.8-0.5,1.4
			l-2.3-0.2c0.1-1.3,0.6-2.2,1.3-2.7s1.6-0.8,2.7-0.8c1.2,0,2.1,0.3,2.8,0.9c0.7,0.6,1,1.4,1,2.4c0,0.5-0.1,1-0.3,1.5
			s-0.5,1-0.9,1.5c-0.3,0.4-0.8,0.9-1.5,1.5c-0.7,0.7-1.2,1.1-1.4,1.3c-0.2,0.2-0.3,0.4-0.5,0.6H13.4z"/>
		<path class="st8" d="M15,114.9l2.3-0.2c0.1,0.5,0.3,0.9,0.6,1.2c0.3,0.3,0.7,0.4,1.1,0.4c0.5,0,0.9-0.2,1.2-0.6
			c0.3-0.4,0.5-1,0.5-1.7c0-0.7-0.2-1.3-0.5-1.6c-0.3-0.4-0.8-0.5-1.3-0.5c-0.7,0-1.2,0.3-1.8,0.9l-1.8-0.3l1.2-6.2h6v2.1h-4.3
			l-0.4,2c0.5-0.3,1-0.4,1.6-0.4c1,0,1.9,0.4,2.6,1.1c0.7,0.7,1.1,1.7,1.1,2.9c0,1-0.3,1.9-0.9,2.6c-0.8,1-1.8,1.6-3.2,1.6
			c-1.1,0-2-0.3-2.7-0.9S15.2,115.9,15,114.9z"/>
		<path class="st8" d="M32.6,106c1.2,0,2,0.4,2.7,1.2c0.8,1,1.2,2.6,1.2,4.8c0,2.2-0.4,3.9-1.2,4.8c-0.6,0.8-1.5,1.2-2.7,1.2
			c-1.2,0-2.1-0.4-2.8-1.3c-0.7-0.9-1.1-2.5-1.1-4.8c0-2.2,0.4-3.8,1.2-4.8C30.6,106.4,31.5,106,32.6,106z M32.6,107.9
			c-0.3,0-0.5,0.1-0.7,0.3c-0.2,0.2-0.4,0.5-0.5,0.9c-0.2,0.6-0.2,1.6-0.2,3s0.1,2.4,0.2,2.9c0.1,0.5,0.3,0.9,0.5,1
			c0.2,0.2,0.5,0.3,0.7,0.3s0.5-0.1,0.7-0.3c0.2-0.2,0.4-0.5,0.5-0.9c0.2-0.6,0.2-1.6,0.2-3s-0.1-2.4-0.2-2.9
			c-0.1-0.5-0.3-0.9-0.5-1C33.1,108,32.9,107.9,32.6,107.9z"/>
		<path class="st8" d="M41.9,106c1.2,0,2,0.4,2.7,1.2c0.8,1,1.2,2.6,1.2,4.8c0,2.2-0.4,3.9-1.2,4.8c-0.6,0.8-1.5,1.2-2.7,1.2
			c-1.2,0-2.1-0.4-2.8-1.3c-0.7-0.9-1.1-2.5-1.1-4.8c0-2.2,0.4-3.8,1.2-4.8C39.9,106.4,40.7,106,41.9,106z M41.9,107.9
			c-0.3,0-0.5,0.1-0.7,0.3c-0.2,0.2-0.4,0.5-0.5,0.9c-0.2,0.6-0.2,1.6-0.2,3s0.1,2.4,0.2,2.9c0.1,0.5,0.3,0.9,0.5,1
			c0.2,0.2,0.5,0.3,0.7,0.3s0.5-0.1,0.7-0.3c0.2-0.2,0.4-0.5,0.5-0.9c0.2-0.6,0.2-1.6,0.2-3s-0.1-2.4-0.2-2.9
			c-0.1-0.5-0.3-0.9-0.5-1C42.4,108,42.2,107.9,41.9,107.9z"/>
		<path class="st8" d="M51,106c1.2,0,2,0.4,2.7,1.2c0.8,1,1.2,2.6,1.2,4.8c0,2.2-0.4,3.9-1.2,4.8c-0.6,0.8-1.5,1.2-2.7,1.2
			c-1.2,0-2.1-0.4-2.8-1.3c-0.7-0.9-1.1-2.5-1.1-4.8c0-2.2,0.4-3.8,1.2-4.8C49,106.4,49.9,106,51,106z M51,107.9
			c-0.3,0-0.5,0.1-0.7,0.3c-0.2,0.2-0.4,0.5-0.5,0.9c-0.2,0.6-0.2,1.6-0.2,3s0.1,2.4,0.2,2.9c0.1,0.5,0.3,0.9,0.5,1
			c0.2,0.2,0.5,0.3,0.7,0.3s0.5-0.1,0.7-0.3c0.2-0.2,0.4-0.5,0.5-0.9c0.2-0.6,0.2-1.6,0.2-3s-0.1-2.4-0.2-2.9
			c-0.1-0.5-0.3-0.9-0.5-1C51.5,108,51.3,107.9,51,107.9z"/>
	</g>
</g>
<g>
	<defs>
		<rect id="SVGID_00000152249408164637125860000013875935350232859278_" x="-4" y="36.5" width="636" height="411.9"/>
	</defs>
	<clipPath id="SVGID_00000015336266990198521250000000486667418684320417_">
		<use xlink:href="#SVGID_00000152249408164637125860000013875935350232859278_"  style="overflow:visible;"/>
	</clipPath>
	<g style="clip-path:url(#SVGID_00000015336266990198521250000000486667418684320417_);">
		<path class="st8" d="M5.7,55.1l2.2-0.3c0.1,0.6,0.3,1,0.6,1.3c0.3,0.3,0.7,0.4,1.1,0.4c0.5,0,0.9-0.2,1.2-0.5
			c0.3-0.4,0.5-0.8,0.5-1.4c0-0.6-0.2-1-0.5-1.4c-0.3-0.3-0.7-0.5-1.1-0.5c-0.3,0-0.6,0.1-1,0.2L8.8,51c0.6,0,1.1-0.1,1.4-0.4
			s0.5-0.7,0.5-1.1c0-0.4-0.1-0.7-0.4-1c-0.2-0.2-0.6-0.4-0.9-0.4c-0.4,0-0.7,0.1-1,0.4S8,49.3,7.9,49.8l-2.1-0.4
			c0.1-0.7,0.4-1.3,0.7-1.7c0.3-0.4,0.7-0.8,1.2-1c0.5-0.2,1.1-0.4,1.8-0.4c1.1,0,2,0.4,2.7,1.1c0.6,0.6,0.8,1.2,0.8,2
			c0,1-0.6,1.9-1.7,2.5c0.7,0.1,1.2,0.5,1.6,1s0.6,1.1,0.6,1.8c0,1-0.4,1.9-1.1,2.7c-0.8,0.7-1.7,1.1-2.8,1.1c-1.1,0-2-0.3-2.7-0.9
			S5.8,56.1,5.7,55.1z"/>
		<path class="st8" d="M18.9,46.3c1.2,0,2,0.4,2.7,1.2c0.8,1,1.2,2.6,1.2,4.8c0,2.2-0.4,3.9-1.2,4.8c-0.6,0.8-1.5,1.2-2.7,1.2
			c-1.2,0-2.1-0.4-2.8-1.3c-0.7-0.9-1.1-2.5-1.1-4.8c0-2.2,0.4-3.8,1.2-4.8C16.8,46.7,17.7,46.3,18.9,46.3z M18.9,48.2
			c-0.3,0-0.5,0.1-0.7,0.3c-0.2,0.2-0.4,0.5-0.5,0.9c-0.2,0.6-0.2,1.6-0.2,3s0.1,2.4,0.2,2.9c0.1,0.5,0.3,0.9,0.5,1
			c0.2,0.2,0.5,0.3,0.7,0.3s0.5-0.1,0.7-0.3c0.2-0.2,0.4-0.5,0.5-0.9c0.2-0.6,0.2-1.6,0.2-3s-0.1-2.4-0.2-2.9
			c-0.1-0.5-0.3-0.9-0.5-1C19.4,48.3,19.1,48.2,18.9,48.2z"/>
		<path class="st8" d="M32.6,46.3c1.2,0,2,0.4,2.7,1.2c0.8,1,1.2,2.6,1.2,4.8c0,2.2-0.4,3.9-1.2,4.8c-0.6,0.8-1.5,1.2-2.7,1.2
			c-1.2,0-2.1-0.4-2.8-1.3c-0.7-0.9-1.1-2.5-1.1-4.8c0-2.2,0.4-3.8,1.2-4.8C30.6,46.7,31.5,46.3,32.6,46.3z M32.6,48.2
			c-0.3,0-0.5,0.1-0.7,0.3c-0.2,0.2-0.4,0.5-0.5,0.9c-0.2,0.6-0.2,1.6-0.2,3s0.1,2.4,0.2,2.9c0.1,0.5,0.3,0.9,0.5,1
			c0.2,0.2,0.5,0.3,0.7,0.3s0.5-0.1,0.7-0.3c0.2-0.2,0.4-0.5,0.5-0.9c0.2-0.6,0.2-1.6,0.2-3S34,50,33.9,49.5c-0.1-0.5-0.3-0.9-0.5-1
			C33.1,48.3,32.9,48.2,32.6,48.2z"/>
		<path class="st8" d="M41.9,46.3c1.2,0,2,0.4,2.7,1.2c0.8,1,1.2,2.6,1.2,4.8c0,2.2-0.4,3.9-1.2,4.8c-0.6,0.8-1.5,1.2-2.7,1.2
			c-1.2,0-2.1-0.4-2.8-1.3c-0.7-0.9-1.1-2.5-1.1-4.8c0-2.2,0.4-3.8,1.2-4.8C39.9,46.7,40.7,46.3,41.9,46.3z M41.9,48.2
			c-0.3,0-0.5,0.1-0.7,0.3c-0.2,0.2-0.4,0.5-0.5,0.9c-0.2,0.6-0.2,1.6-0.2,3s0.1,2.4,0.2,2.9c0.1,0.5,0.3,0.9,0.5,1
			c0.2,0.2,0.5,0.3,0.7,0.3s0.5-0.1,0.7-0.3c0.2-0.2,0.4-0.5,0.5-0.9c0.2-0.6,0.2-1.6,0.2-3s-0.1-2.4-0.2-2.9
			c-0.1-0.5-0.3-0.9-0.5-1C42.4,48.3,42.2,48.2,41.9,48.2z"/>
		<path class="st8" d="M51,46.3c1.2,0,2,0.4,2.7,1.2c0.8,1,1.2,2.6,1.2,4.8c0,2.2-0.4,3.9-1.2,4.8c-0.6,0.8-1.5,1.2-2.7,1.2
			c-1.2,0-2.1-0.4-2.8-1.3c-0.7-0.9-1.1-2.5-1.1-4.8c0-2.2,0.4-3.8,1.2-4.8C49,46.7,49.9,46.3,51,46.3z M51,48.2
			c-0.3,0-0.5,0.1-0.7,0.3c-0.2,0.2-0.4,0.5-0.5,0.9c-0.2,0.6-0.2,1.6-0.2,3s0.1,2.4,0.2,2.9c0.1,0.5,0.3,0.9,0.5,1
			c0.2,0.2,0.5,0.3,0.7,0.3s0.5-0.1,0.7-0.3c0.2-0.2,0.4-0.5,0.5-0.9c0.2-0.6,0.2-1.6,0.2-3s-0.1-2.4-0.2-2.9
			c-0.1-0.5-0.3-0.9-0.5-1C51.5,48.3,51.3,48.2,51,48.2z"/>
	</g>
</g>
<g>
	<defs>
		<rect id="SVGID_00000114037140967157896970000012917754335652135358_" x="-4" y="36.5" width="636" height="411.9"/>
	</defs>
	<clipPath id="SVGID_00000170958275207419458650000014543092075285987242_">
		<use xlink:href="#SVGID_00000114037140967157896970000012917754335652135358_"  style="overflow:visible;"/>
	</clipPath>
	<g style="clip-path:url(#SVGID_00000170958275207419458650000014543092075285987242_);">
		<path class="st8" d="M85.3,432.3l2.3-0.2c0.1,0.8,0.4,1.4,0.9,1.7c0.4,0.4,1,0.6,1.7,0.6c0.8,0,1.4-0.2,1.7-0.5
			c0.4-0.3,0.6-0.7,0.6-1.1c0-0.3-0.1-0.5-0.2-0.7c-0.2-0.2-0.5-0.4-0.9-0.5c-0.3-0.1-0.9-0.3-1.9-0.5c-1.3-0.3-2.2-0.7-2.7-1.2
			c-0.7-0.7-1.1-1.5-1.1-2.4c0-0.6,0.2-1.2,0.5-1.7c0.3-0.5,0.8-0.9,1.5-1.2c0.6-0.3,1.4-0.4,2.3-0.4c1.5,0,2.6,0.3,3.4,1
			c0.8,0.7,1.1,1.5,1.2,2.6l-2.4,0.1c-0.1-0.6-0.3-1-0.7-1.3c-0.3-0.3-0.8-0.4-1.5-0.4c-0.7,0-1.2,0.1-1.6,0.4
			c-0.3,0.2-0.4,0.4-0.4,0.7c0,0.3,0.1,0.5,0.4,0.7c0.3,0.3,1,0.5,2.2,0.8c1.2,0.3,2,0.6,2.6,0.9c0.6,0.3,1,0.7,1.3,1.2
			s0.5,1.1,0.5,1.9c0,0.7-0.2,1.3-0.6,1.9c-0.4,0.6-0.9,1-1.6,1.3c-0.7,0.3-1.6,0.4-2.6,0.4c-1.5,0-2.7-0.3-3.5-1
			C86,434.6,85.5,433.6,85.3,432.3z"/>
		<path class="st8" d="M102.4,436.1h-2.3v-8.6c-0.8,0.8-1.8,1.4-2.9,1.7v-2.1c0.6-0.2,1.2-0.6,1.9-1.1c0.7-0.5,1.2-1.2,1.4-1.9h1.8
			V436.1z"/>
		<path class="st8" d="M104.9,436.3l2.9-12.3h1.7l-3,12.3H104.9z"/>
		<path class="st8" d="M118,434v2.1h-8c0.1-0.8,0.3-1.6,0.8-2.3s1.3-1.7,2.6-2.8c1-1,1.7-1.6,1.9-1.9c0.3-0.5,0.5-0.9,0.5-1.4
			c0-0.5-0.1-0.9-0.4-1.2c-0.3-0.3-0.6-0.4-1.1-0.4c-0.5,0-0.9,0.1-1.1,0.4c-0.3,0.3-0.4,0.8-0.5,1.4l-2.3-0.2
			c0.1-1.3,0.6-2.2,1.3-2.7s1.6-0.8,2.7-0.8c1.2,0,2.1,0.3,2.8,0.9c0.7,0.6,1,1.4,1,2.4c0,0.5-0.1,1-0.3,1.5s-0.5,1-0.9,1.5
			c-0.3,0.4-0.8,0.9-1.5,1.5s-1.2,1.1-1.4,1.3c-0.2,0.2-0.3,0.4-0.5,0.6H118z"/>
		<path class="st8" d="M123.4,424.2c1.2,0,2,0.4,2.7,1.2c0.8,1,1.2,2.6,1.2,4.8c0,2.2-0.4,3.9-1.2,4.8c-0.6,0.8-1.5,1.2-2.7,1.2
			c-1.2,0-2.1-0.4-2.8-1.3c-0.7-0.9-1.1-2.5-1.1-4.8c0-2.2,0.4-3.8,1.2-4.8C121.4,424.6,122.3,424.2,123.4,424.2z M123.4,426.1
			c-0.3,0-0.5,0.1-0.7,0.3c-0.2,0.2-0.4,0.5-0.5,0.9c-0.2,0.6-0.2,1.6-0.2,3s0.1,2.4,0.2,2.9c0.1,0.5,0.3,0.9,0.5,1s0.5,0.3,0.7,0.3
			s0.5-0.1,0.7-0.3c0.2-0.2,0.4-0.5,0.5-0.9c0.2-0.6,0.2-1.6,0.2-3s-0.1-2.4-0.2-2.9c-0.1-0.5-0.3-0.9-0.5-1
			S123.7,426.1,123.4,426.1z"/>
		<path class="st8" d="M134.5,436.1h-2.3v-8.6c-0.8,0.8-1.8,1.4-2.9,1.7v-2.1c0.6-0.2,1.2-0.6,1.9-1.1c0.7-0.5,1.2-1.2,1.4-1.9h1.8
			V436.1z"/>
		<path class="st8" d="M139.9,429.7c-0.6-0.2-1-0.6-1.3-1c-0.3-0.4-0.4-0.9-0.4-1.4c0-0.9,0.3-1.6,0.9-2.2s1.5-0.9,2.6-0.9
			c1.1,0,2,0.3,2.6,0.9s0.9,1.3,0.9,2.2c0,0.6-0.1,1-0.4,1.5c-0.3,0.4-0.7,0.8-1.2,1c0.7,0.3,1.2,0.7,1.5,1.2
			c0.3,0.5,0.5,1.1,0.5,1.8c0,1.1-0.4,2-1,2.7c-0.7,0.7-1.6,1-2.8,1c-1.1,0-2-0.3-2.7-0.9c-0.8-0.7-1.3-1.6-1.3-2.8
			c0-0.6,0.2-1.2,0.5-1.8C138.7,430.4,139.2,430,139.9,429.7z M140.2,432.5c0,0.6,0.2,1.1,0.5,1.5c0.3,0.4,0.7,0.5,1.2,0.5
			c0.5,0,0.9-0.2,1.2-0.5c0.3-0.3,0.5-0.8,0.5-1.5c0-0.6-0.2-1-0.5-1.3c-0.3-0.3-0.7-0.5-1.2-0.5c-0.6,0-1,0.2-1.2,0.6
			C140.3,431.6,140.2,432.1,140.2,432.5z M140.4,427.4c0,0.5,0.1,0.8,0.4,1.1c0.3,0.3,0.6,0.4,1,0.4c0.4,0,0.8-0.1,1-0.4
			s0.4-0.6,0.4-1.1c0-0.4-0.1-0.8-0.4-1c-0.3-0.3-0.6-0.4-1-0.4c-0.4,0-0.8,0.1-1,0.4C140.5,426.6,140.4,427,140.4,427.4z"/>
	</g>
</g>
<g>
	<defs>
		<rect id="SVGID_00000082342854463352735470000006082316353011021969_" x="-4" y="36.5" width="636" height="411.9"/>
	</defs>
	<clipPath id="SVGID_00000118399202245105110310000013826659890986031242_">
		<use xlink:href="#SVGID_00000082342854463352735470000006082316353011021969_"  style="overflow:visible;"/>
	</clipPath>
	<g style="clip-path:url(#SVGID_00000118399202245105110310000013826659890986031242_);">
		<path class="st8" d="M176.5,432.3l2.3-0.2c0.1,0.8,0.4,1.4,0.9,1.7c0.4,0.4,1,0.6,1.7,0.6c0.8,0,1.4-0.2,1.7-0.5
			c0.4-0.3,0.6-0.7,0.6-1.1c0-0.3-0.1-0.5-0.2-0.7c-0.2-0.2-0.5-0.4-0.9-0.5c-0.3-0.1-0.9-0.3-1.9-0.5c-1.3-0.3-2.2-0.7-2.7-1.2
			c-0.7-0.7-1.1-1.5-1.1-2.4c0-0.6,0.2-1.2,0.5-1.7c0.3-0.5,0.8-0.9,1.5-1.2c0.6-0.3,1.4-0.4,2.3-0.4c1.5,0,2.6,0.3,3.4,1
			c0.8,0.7,1.1,1.5,1.2,2.6l-2.4,0.1c-0.1-0.6-0.3-1-0.7-1.3c-0.3-0.3-0.8-0.4-1.5-0.4c-0.7,0-1.2,0.1-1.6,0.4
			c-0.3,0.2-0.4,0.4-0.4,0.7c0,0.3,0.1,0.5,0.4,0.7c0.3,0.3,1,0.5,2.2,0.8c1.2,0.3,2,0.6,2.6,0.9c0.6,0.3,1,0.7,1.3,1.2
			s0.5,1.1,0.5,1.9c0,0.7-0.2,1.3-0.6,1.9c-0.4,0.6-0.9,1-1.6,1.3c-0.7,0.3-1.6,0.4-2.6,0.4c-1.5,0-2.7-0.3-3.5-1
			C177.1,434.6,176.7,433.6,176.5,432.3z"/>
		<path class="st8" d="M193.5,436.1h-2.3v-8.6c-0.8,0.8-1.8,1.4-2.9,1.7v-2.1c0.6-0.2,1.2-0.6,1.9-1.1c0.7-0.5,1.2-1.2,1.4-1.9h1.8
			V436.1z"/>
		<path class="st8" d="M196.1,436.3L199,424h1.7l-3,12.3H196.1z"/>
		<path class="st8" d="M209.1,434v2.1h-8c0.1-0.8,0.3-1.6,0.8-2.3s1.3-1.7,2.6-2.8c1-1,1.7-1.6,1.9-1.9c0.3-0.5,0.5-0.9,0.5-1.4
			c0-0.5-0.1-0.9-0.4-1.2c-0.3-0.3-0.6-0.4-1.1-0.4c-0.5,0-0.9,0.1-1.1,0.4c-0.3,0.3-0.4,0.8-0.5,1.4l-2.3-0.2
			c0.1-1.3,0.6-2.2,1.3-2.7s1.6-0.8,2.7-0.8c1.2,0,2.1,0.3,2.8,0.9c0.7,0.6,1,1.4,1,2.4c0,0.5-0.1,1-0.3,1.5s-0.5,1-0.9,1.5
			c-0.3,0.4-0.8,0.9-1.5,1.5s-1.2,1.1-1.4,1.3c-0.2,0.2-0.3,0.4-0.5,0.6H209.1z"/>
		<path class="st8" d="M214.6,424.2c1.2,0,2,0.4,2.7,1.2c0.8,1,1.2,2.6,1.2,4.8c0,2.2-0.4,3.9-1.2,4.8c-0.6,0.8-1.5,1.2-2.7,1.2
			c-1.2,0-2.1-0.4-2.8-1.3c-0.7-0.9-1.1-2.5-1.1-4.8c0-2.2,0.4-3.8,1.2-4.8C212.5,424.6,213.4,424.2,214.6,424.2z M214.6,426.1
			c-0.3,0-0.5,0.1-0.7,0.3c-0.2,0.2-0.4,0.5-0.5,0.9c-0.2,0.6-0.2,1.6-0.2,3s0.1,2.4,0.2,2.9c0.1,0.5,0.3,0.9,0.5,1s0.5,0.3,0.7,0.3
			s0.5-0.1,0.7-0.3c0.2-0.2,0.4-0.5,0.5-0.9c0.2-0.6,0.2-1.6,0.2-3s-0.1-2.4-0.2-2.9c-0.1-0.5-0.3-0.9-0.5-1
			S214.9,426.1,214.6,426.1z"/>
		<path class="st8" d="M225.7,436.1h-2.3v-8.6c-0.8,0.8-1.8,1.4-2.9,1.7v-2.1c0.6-0.2,1.2-0.6,1.9-1.1c0.7-0.5,1.2-1.2,1.4-1.9h1.8
			V436.1z"/>
		<path class="st8" d="M229.2,433.4l2.2-0.2c0.1,0.4,0.2,0.8,0.4,1c0.2,0.2,0.5,0.3,0.9,0.3c0.5,0,0.9-0.2,1.2-0.6
			c0.3-0.4,0.5-1.3,0.6-2.7c-0.6,0.7-1.3,1-2.1,1c-0.9,0-1.7-0.4-2.4-1.1c-0.7-0.7-1-1.7-1-2.8c0-1.2,0.4-2.2,1.1-2.9
			c0.7-0.7,1.6-1.1,2.7-1.1c1.2,0,2.2,0.5,3,1.4s1.2,2.5,1.2,4.6c0,2.2-0.4,3.7-1.2,4.7c-0.8,1-1.9,1.4-3.1,1.4
			c-0.9,0-1.7-0.2-2.3-0.7C229.7,435.1,229.3,434.4,229.2,433.4z M234.3,428.4c0-0.7-0.2-1.3-0.5-1.7c-0.3-0.4-0.7-0.6-1.2-0.6
			c-0.4,0-0.8,0.2-1,0.5c-0.3,0.3-0.4,0.9-0.4,1.6c0,0.8,0.2,1.3,0.5,1.7c0.3,0.4,0.7,0.5,1.1,0.5c0.4,0,0.8-0.2,1.1-0.5
			S234.3,429.1,234.3,428.4z"/>
	</g>
</g>
<g>
	<defs>
		<rect id="SVGID_00000041990176840738556610000015468953082878042301_" x="-4" y="36.5" width="636" height="411.9"/>
	</defs>
	<clipPath id="SVGID_00000034082193364688295500000010093979277553433004_">
		<use xlink:href="#SVGID_00000041990176840738556610000015468953082878042301_"  style="overflow:visible;"/>
	</clipPath>
	<g style="clip-path:url(#SVGID_00000034082193364688295500000010093979277553433004_);">
		<path class="st8" d="M267.6,432.3l2.3-0.2c0.1,0.8,0.4,1.4,0.9,1.7c0.4,0.4,1,0.6,1.7,0.6c0.8,0,1.4-0.2,1.7-0.5
			c0.4-0.3,0.6-0.7,0.6-1.1c0-0.3-0.1-0.5-0.2-0.7c-0.2-0.2-0.5-0.4-0.9-0.5c-0.3-0.1-0.9-0.3-1.9-0.5c-1.3-0.3-2.2-0.7-2.7-1.2
			c-0.7-0.7-1.1-1.5-1.1-2.4c0-0.6,0.2-1.2,0.5-1.7c0.3-0.5,0.8-0.9,1.5-1.2c0.6-0.3,1.4-0.4,2.3-0.4c1.5,0,2.6,0.3,3.4,1
			c0.8,0.7,1.1,1.5,1.2,2.6l-2.4,0.1c-0.1-0.6-0.3-1-0.7-1.3c-0.3-0.3-0.8-0.4-1.5-0.4c-0.7,0-1.2,0.1-1.6,0.4
			c-0.3,0.2-0.4,0.4-0.4,0.7c0,0.3,0.1,0.5,0.4,0.7c0.3,0.3,1,0.5,2.2,0.8c1.2,0.3,2,0.6,2.6,0.9c0.6,0.3,1,0.7,1.3,1.2
			s0.5,1.1,0.5,1.9c0,0.7-0.2,1.3-0.6,1.9c-0.4,0.6-0.9,1-1.6,1.3c-0.7,0.3-1.6,0.4-2.6,0.4c-1.5,0-2.7-0.3-3.5-1
			C268.3,434.6,267.8,433.6,267.6,432.3z"/>
		<path class="st8" d="M284.7,436.1h-2.3v-8.6c-0.8,0.8-1.8,1.4-2.9,1.7v-2.1c0.6-0.2,1.2-0.6,1.9-1.1c0.7-0.5,1.2-1.2,1.4-1.9h1.8
			V436.1z"/>
		<path class="st8" d="M287.2,436.3l2.9-12.3h1.7l-3,12.3H287.2z"/>
		<path class="st8" d="M300.3,434v2.1h-8c0.1-0.8,0.3-1.6,0.8-2.3s1.3-1.7,2.6-2.8c1-1,1.7-1.6,1.9-1.9c0.3-0.5,0.5-0.9,0.5-1.4
			c0-0.5-0.1-0.9-0.4-1.2c-0.3-0.3-0.6-0.4-1.1-0.4c-0.5,0-0.9,0.1-1.1,0.4c-0.3,0.3-0.4,0.8-0.5,1.4l-2.3-0.2
			c0.1-1.3,0.6-2.2,1.3-2.7s1.6-0.8,2.7-0.8c1.2,0,2.1,0.3,2.8,0.9c0.7,0.6,1,1.4,1,2.4c0,0.5-0.1,1-0.3,1.5s-0.5,1-0.9,1.5
			c-0.3,0.4-0.8,0.9-1.5,1.5s-1.2,1.1-1.4,1.3c-0.2,0.2-0.3,0.4-0.5,0.6H300.3z"/>
		<path class="st8" d="M305.7,424.2c1.2,0,2,0.4,2.7,1.2c0.8,1,1.2,2.6,1.2,4.8c0,2.2-0.4,3.9-1.2,4.8c-0.6,0.8-1.5,1.2-2.7,1.2
			c-1.2,0-2.1-0.4-2.8-1.3c-0.7-0.9-1.1-2.5-1.1-4.8c0-2.2,0.4-3.8,1.2-4.8C303.7,424.6,304.6,424.2,305.7,424.2z M305.7,426.1
			c-0.3,0-0.5,0.1-0.7,0.3c-0.2,0.2-0.4,0.5-0.5,0.9c-0.2,0.6-0.2,1.6-0.2,3s0.1,2.4,0.2,2.9c0.1,0.5,0.3,0.9,0.5,1s0.5,0.3,0.7,0.3
			s0.5-0.1,0.7-0.3c0.2-0.2,0.4-0.5,0.5-0.9c0.2-0.6,0.2-1.6,0.2-3s-0.1-2.4-0.2-2.9c-0.1-0.5-0.3-0.9-0.5-1S306,426.1,305.7,426.1z
			"/>
		<path class="st8" d="M318.7,434v2.1h-8c0.1-0.8,0.3-1.6,0.8-2.3s1.3-1.7,2.6-2.8c1-1,1.7-1.6,1.9-1.9c0.3-0.5,0.5-0.9,0.5-1.4
			c0-0.5-0.1-0.9-0.4-1.2c-0.3-0.3-0.7-0.4-1.1-0.4c-0.5,0-0.9,0.1-1.1,0.4c-0.3,0.3-0.4,0.8-0.5,1.4l-2.3-0.2
			c0.1-1.3,0.6-2.2,1.3-2.7s1.6-0.8,2.7-0.8c1.2,0,2.1,0.3,2.8,0.9c0.7,0.6,1,1.4,1,2.4c0,0.5-0.1,1-0.3,1.5c-0.2,0.5-0.5,1-0.9,1.5
			c-0.3,0.4-0.8,0.9-1.5,1.5c-0.7,0.7-1.2,1.1-1.4,1.3c-0.2,0.2-0.3,0.4-0.5,0.6H318.7z"/>
		<path class="st8" d="M324.1,424.2c1.2,0,2,0.4,2.7,1.2c0.8,1,1.2,2.6,1.2,4.8c0,2.2-0.4,3.9-1.2,4.8c-0.6,0.8-1.5,1.2-2.7,1.2
			c-1.2,0-2.1-0.4-2.8-1.3c-0.7-0.9-1.1-2.5-1.1-4.8c0-2.2,0.4-3.8,1.2-4.8C322.1,424.6,323,424.2,324.1,424.2z M324.1,426.1
			c-0.3,0-0.5,0.1-0.7,0.3c-0.2,0.2-0.4,0.5-0.5,0.9c-0.2,0.6-0.2,1.6-0.2,3s0.1,2.4,0.2,2.9c0.1,0.5,0.3,0.9,0.5,1s0.5,0.3,0.7,0.3
			s0.5-0.1,0.7-0.3c0.2-0.2,0.4-0.5,0.5-0.9c0.2-0.6,0.2-1.6,0.2-3s-0.1-2.4-0.2-2.9s-0.3-0.9-0.5-1S324.4,426.1,324.1,426.1z"/>
	</g>
</g>
<g>
	<defs>
		<rect id="SVGID_00000072242456613533102820000000785923574391999142_" x="-4" y="36.5" width="636" height="411.9"/>
	</defs>
	<clipPath id="SVGID_00000027567929234768103100000016311236256734915477_">
		<use xlink:href="#SVGID_00000072242456613533102820000000785923574391999142_"  style="overflow:visible;"/>
	</clipPath>
	<g style="clip-path:url(#SVGID_00000027567929234768103100000016311236256734915477_);">
		<path class="st8" d="M358.8,432.3l2.3-0.2c0.1,0.8,0.4,1.4,0.9,1.7c0.4,0.4,1,0.6,1.7,0.6c0.8,0,1.4-0.2,1.7-0.5
			c0.4-0.3,0.6-0.7,0.6-1.1c0-0.3-0.1-0.5-0.2-0.7s-0.5-0.4-0.9-0.5c-0.3-0.1-0.9-0.3-1.9-0.5c-1.3-0.3-2.2-0.7-2.7-1.2
			c-0.7-0.7-1.1-1.5-1.1-2.4c0-0.6,0.2-1.2,0.5-1.7c0.3-0.5,0.8-0.9,1.5-1.2c0.6-0.3,1.4-0.4,2.3-0.4c1.5,0,2.6,0.3,3.4,1
			c0.8,0.7,1.1,1.5,1.2,2.6l-2.4,0.1c-0.1-0.6-0.3-1-0.7-1.3c-0.3-0.3-0.8-0.4-1.5-0.4c-0.7,0-1.2,0.1-1.6,0.4
			c-0.3,0.2-0.4,0.4-0.4,0.7c0,0.3,0.1,0.5,0.4,0.7c0.3,0.3,1,0.5,2.2,0.8c1.2,0.3,2,0.6,2.6,0.9c0.6,0.3,1,0.7,1.3,1.2
			c0.3,0.5,0.5,1.1,0.5,1.9c0,0.7-0.2,1.3-0.6,1.9c-0.4,0.6-0.9,1-1.6,1.3s-1.6,0.4-2.6,0.4c-1.5,0-2.7-0.3-3.5-1
			C359.4,434.6,359,433.6,358.8,432.3z"/>
		<path class="st8" d="M375.8,436.1h-2.3v-8.6c-0.8,0.8-1.8,1.4-2.9,1.7v-2.1c0.6-0.2,1.2-0.6,1.9-1.1c0.7-0.5,1.2-1.2,1.4-1.9h1.8
			V436.1z"/>
		<path class="st8" d="M378.4,436.3l2.9-12.3h1.7l-3,12.3H378.4z"/>
		<path class="st8" d="M391.4,434v2.1h-8c0.1-0.8,0.3-1.6,0.8-2.3c0.4-0.7,1.3-1.7,2.6-2.8c1-1,1.7-1.6,1.9-1.9
			c0.3-0.5,0.5-0.9,0.5-1.4c0-0.5-0.1-0.9-0.4-1.2c-0.3-0.3-0.6-0.4-1.1-0.4c-0.5,0-0.9,0.1-1.1,0.4c-0.3,0.3-0.4,0.8-0.5,1.4
			l-2.3-0.2c0.1-1.3,0.6-2.2,1.3-2.7c0.7-0.5,1.6-0.8,2.7-0.8c1.2,0,2.1,0.3,2.8,0.9s1,1.4,1,2.4c0,0.5-0.1,1-0.3,1.5
			s-0.5,1-0.9,1.5c-0.3,0.4-0.8,0.9-1.5,1.5s-1.2,1.1-1.4,1.3c-0.2,0.2-0.3,0.4-0.5,0.6H391.4z"/>
		<path class="st8" d="M396.9,424.2c1.2,0,2,0.4,2.7,1.2c0.8,1,1.2,2.6,1.2,4.8c0,2.2-0.4,3.9-1.2,4.8c-0.6,0.8-1.5,1.2-2.7,1.2
			c-1.2,0-2.1-0.4-2.8-1.3c-0.7-0.9-1.1-2.5-1.1-4.8c0-2.2,0.4-3.8,1.2-4.8C394.8,424.6,395.7,424.2,396.9,424.2z M396.9,426.1
			c-0.3,0-0.5,0.1-0.7,0.3s-0.4,0.5-0.5,0.9c-0.2,0.6-0.2,1.6-0.2,3s0.1,2.4,0.2,2.9c0.1,0.5,0.3,0.9,0.5,1c0.2,0.2,0.5,0.3,0.7,0.3
			s0.5-0.1,0.7-0.3c0.2-0.2,0.4-0.5,0.5-0.9c0.2-0.6,0.2-1.6,0.2-3s-0.1-2.4-0.2-2.9s-0.3-0.9-0.5-1
			C397.4,426.2,397.2,426.1,396.9,426.1z"/>
		<path class="st8" d="M409.9,434v2.1h-8c0.1-0.8,0.3-1.6,0.8-2.3c0.4-0.7,1.3-1.7,2.6-2.8c1-1,1.7-1.6,1.9-1.9
			c0.3-0.5,0.5-0.9,0.5-1.4c0-0.5-0.1-0.9-0.4-1.2c-0.3-0.3-0.6-0.4-1.1-0.4c-0.5,0-0.9,0.1-1.1,0.4c-0.3,0.3-0.4,0.8-0.5,1.4
			l-2.3-0.2c0.1-1.3,0.6-2.2,1.3-2.7c0.7-0.5,1.6-0.8,2.7-0.8c1.2,0,2.1,0.3,2.8,0.9s1,1.4,1,2.4c0,0.5-0.1,1-0.3,1.5
			s-0.5,1-0.9,1.5c-0.3,0.4-0.8,0.9-1.5,1.5s-1.2,1.1-1.4,1.3c-0.2,0.2-0.3,0.4-0.5,0.6H409.9z"/>
		<path class="st8" d="M417.3,436.1H415v-8.6c-0.8,0.8-1.8,1.4-2.9,1.7v-2.1c0.6-0.2,1.2-0.6,1.9-1.1c0.7-0.5,1.2-1.2,1.4-1.9h1.8
			V436.1z"/>
	</g>
</g>
<g>
	<defs>
		<rect id="SVGID_00000046316888351463702520000014140735230083537818_" x="-4" y="36.5" width="636" height="411.9"/>
	</defs>
	<clipPath id="SVGID_00000109725499918509684160000009019756749460653719_">
		<use xlink:href="#SVGID_00000046316888351463702520000014140735230083537818_"  style="overflow:visible;"/>
	</clipPath>
	<g style="clip-path:url(#SVGID_00000109725499918509684160000009019756749460653719_);">
		<path class="st8" d="M449.9,432.3l2.3-0.2c0.1,0.8,0.4,1.4,0.9,1.7c0.4,0.4,1,0.6,1.7,0.6c0.8,0,1.4-0.2,1.7-0.5
			c0.4-0.3,0.6-0.7,0.6-1.1c0-0.3-0.1-0.5-0.2-0.7s-0.5-0.4-0.9-0.5c-0.3-0.1-0.9-0.3-1.9-0.5c-1.3-0.3-2.2-0.7-2.7-1.2
			c-0.7-0.7-1.1-1.5-1.1-2.4c0-0.6,0.2-1.2,0.5-1.7c0.3-0.5,0.8-0.9,1.5-1.2c0.6-0.3,1.4-0.4,2.3-0.4c1.5,0,2.6,0.3,3.4,1
			c0.8,0.7,1.1,1.5,1.2,2.6l-2.4,0.1c-0.1-0.6-0.3-1-0.7-1.3c-0.3-0.3-0.8-0.4-1.5-0.4c-0.7,0-1.2,0.1-1.6,0.4
			c-0.3,0.2-0.4,0.4-0.4,0.7c0,0.3,0.1,0.5,0.4,0.7c0.3,0.3,1,0.5,2.2,0.8c1.2,0.3,2,0.6,2.6,0.9c0.6,0.3,1,0.7,1.3,1.2
			c0.3,0.5,0.5,1.1,0.5,1.9c0,0.7-0.2,1.3-0.6,1.9c-0.4,0.6-0.9,1-1.6,1.3s-1.6,0.4-2.6,0.4c-1.5,0-2.7-0.3-3.5-1
			C450.6,434.6,450.1,433.6,449.9,432.3z"/>
		<path class="st8" d="M467,436.1h-2.3v-8.6c-0.8,0.8-1.8,1.4-2.9,1.7v-2.1c0.6-0.2,1.2-0.6,1.9-1.1c0.7-0.5,1.2-1.2,1.4-1.9h1.8
			V436.1z"/>
		<path class="st8" d="M469.5,436.3l2.9-12.3h1.7l-3,12.3H469.5z"/>
		<path class="st8" d="M482.6,434v2.1h-8c0.1-0.8,0.3-1.6,0.8-2.3c0.4-0.7,1.3-1.7,2.6-2.8c1-1,1.7-1.6,1.9-1.9
			c0.3-0.5,0.5-0.9,0.5-1.4c0-0.5-0.1-0.9-0.4-1.2c-0.3-0.3-0.6-0.4-1.1-0.4c-0.5,0-0.9,0.1-1.1,0.4c-0.3,0.3-0.4,0.8-0.5,1.4
			l-2.3-0.2c0.1-1.3,0.6-2.2,1.3-2.7c0.7-0.5,1.6-0.8,2.7-0.8c1.2,0,2.1,0.3,2.8,0.9s1,1.4,1,2.4c0,0.5-0.1,1-0.3,1.5
			s-0.5,1-0.9,1.5c-0.3,0.4-0.8,0.9-1.5,1.5s-1.2,1.1-1.4,1.3c-0.2,0.2-0.3,0.4-0.5,0.6H482.6z"/>
		<path class="st8" d="M488,424.2c1.2,0,2,0.4,2.7,1.2c0.8,1,1.2,2.6,1.2,4.8c0,2.2-0.4,3.9-1.2,4.8c-0.6,0.8-1.5,1.2-2.7,1.2
			c-1.2,0-2.1-0.4-2.8-1.3c-0.7-0.9-1.1-2.5-1.1-4.8c0-2.2,0.4-3.8,1.2-4.8C486,424.6,486.9,424.2,488,424.2z M488,426.1
			c-0.3,0-0.5,0.1-0.7,0.3s-0.4,0.5-0.5,0.9c-0.2,0.6-0.2,1.6-0.2,3s0.1,2.4,0.2,2.9c0.1,0.5,0.3,0.9,0.5,1c0.2,0.2,0.5,0.3,0.7,0.3
			s0.5-0.1,0.7-0.3c0.2-0.2,0.4-0.5,0.5-0.9c0.2-0.6,0.2-1.6,0.2-3s-0.1-2.4-0.2-2.9s-0.3-0.9-0.5-1
			C488.5,426.2,488.3,426.1,488,426.1z"/>
		<path class="st8" d="M501,434v2.1h-8c0.1-0.8,0.3-1.6,0.8-2.3c0.4-0.7,1.3-1.7,2.6-2.8c1-1,1.7-1.6,1.9-1.9
			c0.3-0.5,0.5-0.9,0.5-1.4c0-0.5-0.1-0.9-0.4-1.2c-0.3-0.3-0.6-0.4-1.1-0.4c-0.5,0-0.9,0.1-1.1,0.4c-0.3,0.3-0.4,0.8-0.5,1.4
			l-2.3-0.2c0.1-1.3,0.6-2.2,1.3-2.7c0.7-0.5,1.6-0.8,2.7-0.8c1.2,0,2.1,0.3,2.8,0.9s1,1.4,1,2.4c0,0.5-0.1,1-0.3,1.5
			s-0.5,1-0.9,1.5c-0.3,0.4-0.8,0.9-1.5,1.5s-1.2,1.1-1.4,1.3c-0.2,0.2-0.3,0.4-0.5,0.6H501z"/>
		<path class="st8" d="M510.3,434v2.1h-8c0.1-0.8,0.3-1.6,0.8-2.3c0.4-0.7,1.3-1.7,2.6-2.8c1-1,1.7-1.6,1.9-1.9
			c0.3-0.5,0.5-0.9,0.5-1.4c0-0.5-0.1-0.9-0.4-1.2c-0.3-0.3-0.6-0.4-1.1-0.4c-0.5,0-0.9,0.1-1.1,0.4c-0.3,0.3-0.4,0.8-0.5,1.4
			l-2.3-0.2c0.1-1.3,0.6-2.2,1.3-2.7c0.7-0.5,1.6-0.8,2.7-0.8c1.2,0,2.1,0.3,2.8,0.9s1,1.4,1,2.4c0,0.5-0.1,1-0.3,1.5
			s-0.5,1-0.9,1.5c-0.3,0.4-0.8,0.9-1.5,1.5s-1.2,1.1-1.4,1.3c-0.2,0.2-0.3,0.4-0.5,0.6H510.3z"/>
	</g>
</g>
<g>
	<defs>
		<rect id="SVGID_00000119078372545862553820000001712593954800455871_" x="-4" y="36.5" width="636" height="411.9"/>
	</defs>
	<clipPath id="SVGID_00000061470702652038855490000014429030285143763084_">
		<use xlink:href="#SVGID_00000119078372545862553820000001712593954800455871_"  style="overflow:visible;"/>
	</clipPath>
	<g style="clip-path:url(#SVGID_00000061470702652038855490000014429030285143763084_);">
		<path class="st8" d="M541.1,432.3l2.3-0.2c0.1,0.8,0.4,1.4,0.9,1.7c0.4,0.4,1,0.6,1.7,0.6c0.8,0,1.4-0.2,1.7-0.5
			c0.4-0.3,0.6-0.7,0.6-1.1c0-0.3-0.1-0.5-0.2-0.7s-0.5-0.4-0.9-0.5c-0.3-0.1-0.9-0.3-1.9-0.5c-1.3-0.3-2.2-0.7-2.7-1.2
			c-0.7-0.7-1.1-1.5-1.1-2.4c0-0.6,0.2-1.2,0.5-1.7c0.3-0.5,0.8-0.9,1.5-1.2c0.6-0.3,1.4-0.4,2.3-0.4c1.5,0,2.6,0.3,3.4,1
			c0.8,0.7,1.1,1.5,1.2,2.6l-2.4,0.1c-0.1-0.6-0.3-1-0.7-1.3c-0.3-0.3-0.8-0.4-1.5-0.4c-0.7,0-1.2,0.1-1.6,0.4
			c-0.3,0.2-0.4,0.4-0.4,0.7c0,0.3,0.1,0.5,0.4,0.7c0.3,0.3,1,0.5,2.2,0.8c1.2,0.3,2,0.6,2.6,0.9c0.6,0.3,1,0.7,1.3,1.2
			c0.3,0.5,0.5,1.1,0.5,1.9c0,0.7-0.2,1.3-0.6,1.9c-0.4,0.6-0.9,1-1.6,1.3s-1.6,0.4-2.6,0.4c-1.5,0-2.7-0.3-3.5-1
			C541.7,434.6,541.2,433.6,541.1,432.3z"/>
		<path class="st8" d="M558.1,436.1h-2.3v-8.6c-0.8,0.8-1.8,1.4-2.9,1.7v-2.1c0.6-0.2,1.2-0.6,1.9-1.1c0.7-0.5,1.2-1.2,1.4-1.9h1.8
			V436.1z"/>
		<path class="st8" d="M560.7,436.3l2.9-12.3h1.7l-3,12.3H560.7z"/>
		<path class="st8" d="M573.7,434v2.1h-8c0.1-0.8,0.3-1.6,0.8-2.3c0.4-0.7,1.3-1.7,2.6-2.8c1-1,1.7-1.6,1.9-1.9
			c0.3-0.5,0.5-0.9,0.5-1.4c0-0.5-0.1-0.9-0.4-1.2c-0.3-0.3-0.6-0.4-1.1-0.4c-0.5,0-0.9,0.1-1.1,0.4c-0.3,0.3-0.4,0.8-0.5,1.4
			l-2.3-0.2c0.1-1.3,0.6-2.2,1.3-2.7c0.7-0.5,1.6-0.8,2.7-0.8c1.2,0,2.1,0.3,2.8,0.9s1,1.4,1,2.4c0,0.5-0.1,1-0.3,1.5
			s-0.5,1-0.9,1.5c-0.3,0.4-0.8,0.9-1.5,1.5s-1.2,1.1-1.4,1.3c-0.2,0.2-0.3,0.4-0.5,0.6H573.7z"/>
		<path class="st8" d="M579.2,424.2c1.2,0,2,0.4,2.7,1.2c0.8,1,1.2,2.6,1.2,4.8c0,2.2-0.4,3.9-1.2,4.8c-0.6,0.8-1.5,1.2-2.7,1.2
			c-1.2,0-2.1-0.4-2.8-1.3c-0.7-0.9-1.1-2.5-1.1-4.8c0-2.2,0.4-3.8,1.2-4.8C577.1,424.6,578,424.2,579.2,424.2z M579.2,426.1
			c-0.3,0-0.5,0.1-0.7,0.3s-0.4,0.5-0.5,0.9c-0.2,0.6-0.2,1.6-0.2,3s0.1,2.4,0.2,2.9c0.1,0.5,0.3,0.9,0.5,1c0.2,0.2,0.5,0.3,0.7,0.3
			s0.5-0.1,0.7-0.3c0.2-0.2,0.4-0.5,0.5-0.9c0.2-0.6,0.2-1.6,0.2-3s-0.1-2.4-0.2-2.9s-0.3-0.9-0.5-1
			C579.7,426.2,579.5,426.1,579.2,426.1z"/>
		<path class="st8" d="M592.2,434v2.1h-8c0.1-0.8,0.3-1.6,0.8-2.3c0.4-0.7,1.3-1.7,2.6-2.8c1-1,1.7-1.6,1.9-1.9
			c0.3-0.5,0.5-0.9,0.5-1.4c0-0.5-0.1-0.9-0.4-1.2c-0.3-0.3-0.6-0.4-1.1-0.4c-0.5,0-0.9,0.1-1.1,0.4c-0.3,0.3-0.4,0.8-0.5,1.4
			l-2.3-0.2c0.1-1.3,0.6-2.2,1.3-2.7c0.7-0.5,1.6-0.8,2.7-0.8c1.2,0,2.1,0.3,2.8,0.9s1,1.4,1,2.4c0,0.5-0.1,1-0.3,1.5
			s-0.5,1-0.9,1.5c-0.3,0.4-0.8,0.9-1.5,1.5s-1.2,1.1-1.4,1.3c-0.2,0.2-0.3,0.4-0.5,0.6H592.2z"/>
		<path class="st8" d="M593.6,433l2.2-0.3c0.1,0.6,0.3,1,0.6,1.3c0.3,0.3,0.7,0.4,1.1,0.4c0.5,0,0.9-0.2,1.2-0.5s0.5-0.8,0.5-1.4
			c0-0.6-0.2-1-0.5-1.4c-0.3-0.3-0.7-0.5-1.1-0.5c-0.3,0-0.6,0.1-1,0.2l0.3-1.9c0.6,0,1.1-0.1,1.4-0.4s0.5-0.7,0.5-1.1
			c0-0.4-0.1-0.7-0.4-1c-0.2-0.2-0.6-0.4-0.9-0.4c-0.4,0-0.7,0.1-1,0.4c-0.3,0.3-0.4,0.7-0.5,1.2l-2.1-0.4c0.1-0.7,0.4-1.3,0.7-1.7
			c0.3-0.4,0.7-0.8,1.2-1c0.5-0.2,1.1-0.4,1.8-0.4c1.1,0,2,0.4,2.7,1.1c0.6,0.6,0.8,1.2,0.8,2c0,1-0.6,1.9-1.7,2.5
			c0.7,0.1,1.2,0.5,1.6,1c0.4,0.5,0.6,1.1,0.6,1.8c0,1-0.4,1.9-1.1,2.7s-1.7,1.1-2.8,1.1c-1.1,0-2-0.3-2.7-0.9
			C594.2,434.8,593.8,434,593.6,433z"/>
	</g>
</g>
<g>
	<path class="st8" d="M11.9,10.8c-1.4,2.7-2.1,5.8-2.1,8.8c0,3.1,0.7,6.1,2.1,8.9H9.6C8,25.9,7,22.8,7,19.8c0-2.9,0.9-6.5,2.6-9
		H11.9z"/>
	<path class="st8" d="M13,11.1h10.4v2.6h-7.3v3h6.7V19h-6.7v3.4h7.5V25H13V11.1z"/>
	<path class="st8" d="M25.2,15h2.6v1.4h0.1c0.7-1.1,1.9-1.7,3.1-1.7c2.9,0,3.7,1.6,3.7,4.1V25h-2.8v-5.7c0-1.6-0.5-2.5-1.8-2.5
		c-1.5,0-2.1,0.8-2.1,2.9V25h-2.8V15z"/>
	<path class="st8" d="M42.5,11.1h3v5.7l5.4-5.7h3.8l-5.4,5.5l5.9,8.4h-3.8l-4.2-6.2l-1.7,1.8V25h-3V11.1z"/>
	<path class="st8" d="M65.2,14.4c-0.9-0.6-1.7-0.9-2.5-0.9c-1.4,0-2.3,0.9-2.7,2.7h4.7L64,17.6h-4.3l0,0.8h4.1l-0.6,1.4h-3.4
		c0.4,2,1.4,3.1,2.9,3.1c1,0,2-0.4,3-1.2l0,2.9c-0.9,0.5-1.9,0.8-3,0.8c-1.6,0-3-0.5-3.9-1.6c-0.9-1-1.5-2.3-1.8-4h-1.5l0.6-1.4h0.8
		c0-0.4,0-0.7,0-0.8h-1.4l0.6-1.4h1c0.3-1.6,1-2.8,1.9-3.7c1-1,2.3-1.5,3.8-1.5c1.1,0,2.3,0.3,3.5,1L65.2,14.4z"/>
	<path class="st8" d="M65.8,28.5c1.4-2.7,2.1-5.8,2.1-8.8c0-3.1-0.7-6.1-2.1-8.9h2.3c1.6,2.7,2.6,5.7,2.6,8.8c0,2.9-0.9,6.5-2.6,9
		H65.8z"/>
</g>
</svg>
